<svg xmlns="http://www.w3.org/2000/svg" viewBox="0 0 24 24" width="24" height="24" fill="#0f1724">
  <path d="M12 .5C5.73.5.75 5.49.75 11.76c0 4.94 3.21 9.12 7.67 10.6.56.1.76-.24.76-.53 0-.26-.01-1.12-.02-2.04-3.12.68-3.78-1.41-3.78-1.41-.51-1.3-1.24-1.65-1.24-1.65-1.02-.7.08-.69.08-.69 1.13.08 1.73 1.16 1.73 1.16 1.00 1.72 2.63 1.22 3.27.94.1-.74.39-1.22.71-1.5-2.49-.28-5.11-1.25-5.11-5.56 0-1.23.44-2.24 1.16-3.03-.12-.29-.5-1.44.11-3.01 0 0 .95-.3 3.11 1.16a10.8 10.8 0 012.84-.38c.96.01 1.93.13 2.84.38 2.15-1.46 3.1-1.16 3.1-1.16.61 1.57.23 2.72.11 3.01.72.79 1.16 1.8 1.16 3.03 0 4.32-2.63 5.28-5.13 5.56.4.35.75 1.04.75 2.1 0 1.52-.01 2.74-.01 3.11 0 .29.2.63.77.52C19.06 20.88 22.25 16.7 22.25 11.76 22.25 5.49 17.27.5 12 .5z"/>
</svg>
